<?xml version="1.0" encoding="utf-8"?>
<!DOCTYPE svg PUBLIC "-//W3C//DTD SVG 1.1//EN" "http://www.w3.org/Graphics/SVG/1.1/DTD/svg11.dtd">
<svg xmlns="http://www.w3.org/2000/svg" xmlns:xlink="http://www.w3.org/1999/xlink" version="1.1" baseProfile="full" width="50" height="50" viewBox="0 0 50.00 50.00" enable-background="new 0 0 50.00 50.00" xml:space="preserve">
	<path fill="#FFFFFF" fill-opacity="1" stroke-width="2" stroke-linejoin="round" stroke="#FFFFFF" stroke-opacity="1" d="M 33.0569,47.2188L 36.1499,44.8181L 9.76718,5.84026L 6.5625,8.22513L 33.0569,47.2188 Z "/>
	<path fill="#FFFFFF" fill-opacity="1" stroke-linejoin="round" stroke="#FFFFFF" stroke-opacity="1" d="M 24.4929,11.1021L 23.3862,8.15588L 26.0701,6.51215L 22.9261,6.65421L 22.1922,3.59375L 21.3557,6.62779L 18.2183,6.38005L 20.8453,8.11314L 19.6402,11.0205L 22.1003,9.05755L 24.4929,11.1021 Z "/>
	<path fill="#FFFFFF" fill-opacity="1" stroke-linejoin="round" stroke="#FFFFFF" stroke-opacity="1" d="M 33.3355,10.6356L 32.5358,8.50674L 34.4751,7.31902L 32.2034,7.42167L 31.673,5.21026L 31.0686,7.40258L 28.8016,7.22358L 30.6998,8.47586L 29.829,10.5766L 31.6066,9.15826L 33.3355,10.6356 Z "/>
	<path fill="#FFFFFF" fill-opacity="1" stroke-linejoin="round" stroke="#FFFFFF" stroke-opacity="1" d="M 31.0766,18.3285L 30.277,16.1997L 32.2163,15.0119L 29.9445,15.1146L 29.4142,12.9032L 28.8098,15.0955L 26.5427,14.9165L 28.441,16.1688L 27.5702,18.2695L 29.3477,16.8512L 31.0766,18.3285 Z "/>
</svg>
