<?xml version="1.0" encoding="utf-8"?>
<!DOCTYPE svg PUBLIC "-//W3C//DTD SVG 1.1//EN" "http://www.w3.org/Graphics/SVG/1.1/DTD/svg11.dtd">
<svg xmlns="http://www.w3.org/2000/svg" xmlns:xlink="http://www.w3.org/1999/xlink" version="1.1" baseProfile="full" width="50" height="50" viewBox="0 0 50.00 50.00" enable-background="new 0 0 50.00 50.00" xml:space="preserve">
	<path fill="#FFFFFF" fill-opacity="1" stroke-linejoin="round" d="M 17.5417,8.59375L 24.875,8.59375L 24.875,10.5938L 17.5417,10.5938L 17.5417,8.59375 Z M 28.2083,8.59375L 35.5417,8.59375L 35.5417,10.5938L 28.2083,10.5938L 28.2083,8.59375 Z M 38.875,8.59375L 41.5625,8.59375L 41.7582,8.61049L 41.9464,8.66697L 42.1194,8.76007L 42.2696,8.88664L 42.3962,9.03688L 42.4893,9.20987L 42.5458,9.39802L 42.5625,9.59375L 42.5625,14.2396L 40.5625,14.2396L 40.5625,9.59375L 41.5625,10.5938L 38.875,10.5938L 38.875,8.59375 Z M 42.5625,17.5729L 42.5625,24.9063L 40.5625,24.9063L 40.5625,17.5729L 42.5625,17.5729 Z M 42.5625,28.2396L 42.5625,35.5729L 40.5625,35.5729L 40.5625,28.2396L 42.5625,28.2396 Z M 42.5625,38.9063L 42.5625,40.7813L 42.5458,40.977L 42.4893,41.1651L 42.3962,41.3381L 42.2696,41.4884L 42.1194,41.6149L 41.9464,41.708L 41.7582,41.7645L 41.5625,41.7813L 36.1042,41.7813L 36.1042,39.7813L 41.5625,39.7813L 40.5625,40.7813L 40.5625,38.9063L 42.5625,38.9063 Z M 32.7708,41.7813L 25.4375,41.7813L 25.4375,39.7813L 32.7708,39.7813L 32.7708,41.7813 Z M 22.1042,41.7813L 14.7708,41.7813L 14.7708,39.7813L 22.1042,39.7813L 22.1042,41.7813 Z M 11.4375,41.7813L 7.875,41.7813L 7.67927,41.7645L 7.49112,41.708L 7.31813,41.6149L 7.16789,41.4884L 7.04132,41.3381L 6.94822,41.1651L 6.89174,40.977L 6.875,40.7813L 6.875,37.0104L 8.875,37.0104L 8.875,40.7813L 7.875,39.7813L 11.4375,39.7813L 11.4375,41.7813 Z M 6.875,33.6771L 6.875,26.3438L 8.875,26.3438L 8.875,33.6771L 6.875,33.6771 Z M 6.875,23.0104L 6.875,15.6771L 8.875,15.6771L 8.875,23.0104L 6.875,23.0104 Z M 6.875,12.3438L 6.875,9.59375L 6.89174,9.39802L 6.94822,9.20987L 7.04132,9.03688L 7.16789,8.88664L 7.31813,8.76007L 7.49112,8.66697L 7.67927,8.61049L 7.875,8.59375L 14.2083,8.59375L 14.2083,10.5938L 7.875,10.5938L 8.875,9.59375L 8.875,12.3438L 6.875,12.3438 Z "/>
	<rect x="10.0987" y="12.1562" fill="#80A4BD" fill-opacity="1" stroke-width="2" stroke-linejoin="round" width="29.1513" height="26.5329"/>
</svg>
