<?xml version="1.0" encoding="utf-8"?>
<!DOCTYPE svg PUBLIC "-//W3C//DTD SVG 1.1//EN" "http://www.w3.org/Graphics/SVG/1.1/DTD/svg11.dtd">
<svg xmlns="http://www.w3.org/2000/svg" xmlns:xlink="http://www.w3.org/1999/xlink" version="1.1" baseProfile="full" width="50" height="50" viewBox="0 0 50.00 50.00" enable-background="new 0 0 50.00 50.00" xml:space="preserve">
	<path fill="#000000" fill-opacity="1" stroke-linejoin="round" d="M 21.0624,12.8125L 28.3958,12.8125L 28.3958,14.8125L 21.0624,14.8125L 21.0624,12.8125 Z M 31.7291,12.8125L 37.0833,12.8125L 37.2791,12.8292L 37.4672,12.8857L 37.6402,12.9788L 37.7904,13.1054L 37.917,13.2556L 38.0101,13.4286L 38.0666,13.6168L 38.0833,13.8125L 38.0833,15.7916L 36.0833,15.7916L 36.0833,13.8125L 37.0833,14.8125L 31.7291,14.8125L 31.7291,12.8125 Z M 38.0833,19.1249L 38.0833,26.4583L 36.0833,26.4583L 36.0833,19.1249L 38.0833,19.1249 Z M 38.0833,29.7916L 38.0833,37.1249L 36.0833,37.1249L 36.0833,29.7916L 38.0833,29.7916 Z M 34.2188,38.5938L 26.8855,38.5938L 26.8855,36.5938L 34.2188,36.5938L 34.2188,38.5938 Z M 23.5521,38.5938L 16.2188,38.5938L 16.2188,36.5938L 23.5521,36.5938L 23.5521,38.5938 Z M 12.8855,38.5938L 11.3958,38.5938L 11.2,38.577L 11.0119,38.5205L 10.8389,38.4274L 10.6887,38.3009L 10.5621,38.1506L 10.469,37.9776L 10.4125,37.7895L 10.3958,37.5938L 10.3958,31.7501L 12.3958,31.7501L 12.3958,37.5938L 11.3958,36.5938L 12.8855,36.5938L 12.8855,38.5938 Z M 10.3958,28.4168L 10.3958,21.0835L 12.3958,21.0835L 12.3958,28.4168L 10.3958,28.4168 Z M 10.3958,17.7501L 10.3958,13.8125L 10.4125,13.6168L 10.469,13.4286L 10.5621,13.2556L 10.6887,13.1054L 10.8389,12.9788L 11.0119,12.8857L 11.2,12.8292L 11.3958,12.8125L 17.7291,12.8125L 17.7291,14.8125L 11.3958,14.8125L 12.3958,13.8125L 12.3958,17.7501L 10.3958,17.7501 Z "/>
	<line fill="none" stroke-width="3" stroke-linecap="square" stroke-linejoin="round" stroke="#000000" stroke-opacity="1" x1="47.4687" y1="3.59375" x2="42.7812" y2="8.28125"/>
	<line fill="none" stroke-width="3" stroke-linecap="square" stroke-linejoin="round" stroke="#000000" stroke-opacity="1" x1="28.8438" y1="21.9687" x2="20.5938" y2="29.7187"/>
	<line fill="none" stroke-width="3" stroke-linecap="square" stroke-linejoin="round" stroke="#000000" stroke-opacity="1" x1="7.46875" y1="42.5313" x2="3.15625" y2="46.2813"/>
</svg>
