<?xml version="1.0" encoding="utf-8"?>
<!DOCTYPE svg PUBLIC "-//W3C//DTD SVG 1.1//EN" "http://www.w3.org/Graphics/SVG/1.1/DTD/svg11.dtd">
<svg xmlns="http://www.w3.org/2000/svg" xmlns:xlink="http://www.w3.org/1999/xlink" version="1.1" baseProfile="full" width="50" height="50" viewBox="0 0 50.00 50.00" enable-background="new 0 0 50.00 50.00" xml:space="preserve">
	<path fill="#000000" fill-opacity="1" stroke-linejoin="round" d="M 14.3749,26.5833L 22.7083,26.5833L 22.7083,29.5833L 14.3749,29.5833L 14.3749,26.5833 Z M 25.0416,26.5833L 28.5625,26.5833L 28.7096,26.5903L 28.8552,26.6119L 28.998,26.6477L 29.1365,26.6975L 29.2697,26.7603L 29.396,26.8359L 29.5142,26.9236L 29.6232,27.0227L 29.7222,27.1316L 29.8099,27.2498L 29.8856,27.3761L 29.9483,27.5093L 29.9981,27.6478L 30.034,27.7906L 30.0555,27.9363L 30.0625,28.0833L 30.0625,32.8958L 27.0625,32.8958L 27.0625,28.0833L 28.5625,29.5833L 25.0416,29.5833L 25.0416,26.5833 Z M 30.0625,35.2291L 30.0625,43.5624L 27.0625,43.5624L 27.0625,35.2291L 30.0625,35.2291 Z M 27.073,45.9063L 18.7397,45.9063L 18.7397,42.9063L 27.073,42.9063L 27.073,45.9063 Z M 16.4063,45.9063L 8.07299,45.9063L 8.07299,42.9063L 16.4063,42.9063L 16.4063,45.9063 Z M 3.70827,44.9376L 3.70827,36.6043L 6.70827,36.6043L 6.70827,44.9376L 3.70827,44.9376 Z M 3.70827,34.271L 3.70827,28.0833L 3.71527,27.9363L 3.73682,27.7906L 3.77264,27.6478L 3.82245,27.5093L 3.88519,27.3761L 3.96083,27.2498L 4.04857,27.1316L 4.14761,27.0227L 4.25654,26.9236L 4.37476,26.8359L 4.50106,26.7603L 4.63425,26.6975L 4.77278,26.6477L 4.91558,26.6119L 5.06122,26.5903L 5.20827,26.5833L 12.0416,26.5833L 12.0416,29.5833L 5.20827,29.5833L 6.70827,28.0833L 6.70827,34.271L 3.70827,34.271 Z "/>
	<path fill="none" stroke-width="2" stroke-linecap="round" stroke-linejoin="round" stroke="#000000" stroke-opacity="1" d="M 34.7014,3.33332L 45.9792,3.33332C 47.0838,3.33332 47.0838,4.22874 45.9792,5.33332L 33.0625,18.25C 31.9579,19.3546 30.1671,20.25 29.0625,20.25L 17.7848,20.25C 16.6802,20.25 16.6802,19.3546 17.7848,18.25L 30.7014,5.33332C 31.806,4.22874 33.5969,3.33332 34.7014,3.33332 Z "/>
	<path fill="#000000" fill-opacity="1" stroke-width="2" stroke-linecap="square" stroke-linejoin="round" stroke="#000000" stroke-opacity="1" d="M 31.9952,4.48392L 46.4952,4.48392L 39.8449,11.1343L 25.3449,11.1343L 31.9952,4.48392 Z "/>
</svg>
