<?xml version="1.0" encoding="utf-8"?>
<!DOCTYPE svg PUBLIC "-//W3C//DTD SVG 1.1//EN" "http://www.w3.org/Graphics/SVG/1.1/DTD/svg11.dtd">
<svg xmlns="http://www.w3.org/2000/svg" xmlns:xlink="http://www.w3.org/1999/xlink" version="1.1" baseProfile="full" width="50" height="50" viewBox="0 0 50.00 50.00" enable-background="new 0 0 50.00 50.00" xml:space="preserve">
	<g>
		<path fill="#000000" fill-opacity="1" stroke-linejoin="round" d="M 17.0925,31.5313L 13.2925,31.5313L 13.2925,25.1313L 7.69251,25.1313L 7.69251,31.5313L 3.89251,31.5313L 3.89251,16.9313L 7.69251,16.9313L 7.69251,22.3313L 13.2925,22.3313L 13.2925,16.9313L 17.0925,16.9313L 17.0925,31.5313 Z "/>
		<path fill="#000000" fill-opacity="1" stroke-linejoin="round" d="M 32.2925,26.9906C 32.2925,28.4552 31.6868,29.6448 30.4753,30.5594C 29.2639,31.474 27.6196,31.9313 25.5425,31.9313C 24.3404,31.9313 23.293,31.8255 22.4003,31.6141C 21.5076,31.4026 20.6717,31.1344 19.8925,30.8094L 19.8925,27.3313L 20.305,27.3313C 21.0821,27.975 21.9519,28.4693 22.9144,28.8141C 23.8769,29.1589 24.8029,29.3313 25.6925,29.3313C 25.9196,29.3313 26.2196,29.3094 26.5925,29.2656C 26.9654,29.2219 27.2685,29.149 27.5019,29.0469C 27.7894,28.9156 28.0264,28.7516 28.2128,28.5547C 28.3993,28.3578 28.4925,28.0656 28.4925,27.6781C 28.4925,27.3531 28.3555,27.0724 28.0816,26.8359C 27.8076,26.5995 27.4071,26.4177 26.88,26.2906C 26.3258,26.1573 25.7404,26.0323 25.1238,25.9156C 24.5071,25.799 23.9279,25.651 23.3863,25.4719C 22.1467,25.0656 21.2545,24.5151 20.7097,23.8203C 20.1649,23.1255 19.8925,22.2625 19.8925,21.2313C 19.8925,19.8479 20.5014,18.7188 21.7191,17.8438C 22.9368,16.9688 24.5019,16.5313 26.4144,16.5313C 27.3748,16.5313 28.3232,16.6255 29.2597,16.8141C 30.1962,17.0026 31.0071,17.2396 31.6925,17.525L 31.6925,20.9313L 31.2863,20.9313C 30.6946,20.4208 29.9691,19.9932 29.1097,19.6484C 28.2503,19.3037 27.3727,19.1313 26.4769,19.1313C 26.1623,19.1313 25.8482,19.1547 25.5347,19.2016C 25.2212,19.2484 24.9196,19.3375 24.63,19.4688C 24.3738,19.5771 24.1534,19.7422 23.9691,19.9641C 23.7847,20.1859 23.6925,20.4385 23.6925,20.7219C 23.6925,21.1135 23.8409,21.4146 24.1378,21.625C 24.4347,21.8354 24.9956,22.0271 25.8206,22.2C 26.3623,22.3125 26.8821,22.4219 27.38,22.5281C 27.8779,22.6344 28.4133,22.7813 28.9863,22.9688C 30.1154,23.3417 30.9488,23.849 31.4863,24.4906C 32.0238,25.1323 32.2925,25.9656 32.2925,26.9906 Z "/>
		<path fill="#000000" fill-opacity="1" stroke-linejoin="round" d="M 48.0925,16.9313L 42.7925,31.5313L 38.5925,31.5313L 33.2925,16.9313L 37.1238,16.9313L 40.6925,27.3375L 44.2613,16.9313L 48.0925,16.9313 Z "/>
	</g>
</svg>
